<?xml version="1.0" standalone="no"?>
<!DOCTYPE svg PUBLIC "-//W3C//DTD SVG 20010904//EN"
 "http://www.w3.org/TR/2001/REC-SVG-20010904/DTD/svg10.dtd">
<svg version="1.0" xmlns="http://www.w3.org/2000/svg"
 width="500.000000pt" height="500.000000pt" viewBox="0 0 500.000000 500.000000"
 preserveAspectRatio="xMidYMid meet">

<g transform="translate(0.000000,500.000000) scale(0.100000,-0.100000)"
fill="#000000" stroke="none">
<path d="M4287 3923 c-4 -3 -7 -25 -7 -48 0 -35 7 -50 41 -89 31 -35 37 -47
26 -52 -32 -12 -329 8 -372 25 -86 34 -166 54 -345 85 -44 8 -502 25 -580 22
-42 -2 -81 1 -88 7 -9 7 -23 7 -45 -1 -18 -6 -50 -14 -72 -17 -78 -12 -161
-35 -200 -55 -21 -11 -47 -20 -57 -20 -10 0 -18 -4 -18 -10 0 -5 -11 -10 -24
-10 -14 0 -31 -6 -38 -12 -7 -7 -29 -22 -49 -33 -78 -43 -209 -157 -209 -182
0 -7 -4 -13 -8 -13 -5 0 -21 -26 -37 -57 -37 -75 -39 -189 -6 -273 11 -30 21
-67 21 -82 0 -15 6 -31 13 -35 32 -21 39 -41 24 -70 -8 -15 -11 -37 -8 -48 11
-35 34 -75 43 -75 4 0 8 -7 8 -15 0 -17 18 -19 39 -6 11 7 11 13 -3 32 -9 13
-16 36 -16 52 l0 28 21 -20 c53 -50 116 -32 172 49 34 48 23 84 -46 155 -35
36 -71 65 -80 65 -9 0 -17 7 -17 15 0 8 -7 15 -15 15 -37 0 -38 64 -1 141 21
45 90 119 134 144 17 11 32 23 32 27 0 4 6 8 14 8 8 0 21 6 28 13 19 19 76 44
165 73 43 14 87 29 98 34 11 5 34 11 50 15 17 4 62 13 100 22 97 21 323 32
468 22 180 -12 421 -57 460 -87 7 -5 35 -16 62 -26 54 -19 74 -27 120 -46 17
-8 86 -15 158 -18 102 -3 141 -1 197 14 39 10 70 22 70 27 0 32 -189 317 -210
317 -4 0 -10 -3 -13 -7z"/>
<path d="M1830 3561 c0 -11 5 -23 10 -26 6 -4 10 5 10 19 0 14 -4 26 -10 26
-5 0 -10 -9 -10 -19z"/>
<path d="M2522 3298 c5 -15 28 -23 28 -10 0 5 -7 13 -16 16 -10 4 -14 1 -12
-6z"/>
<path d="M2607 3213 c-11 -10 -8 -18 12 -41 13 -16 30 -22 60 -22 22 0 41 3
41 8 0 6 -91 62 -102 62 -3 0 -8 -3 -11 -7z"/>
<path d="M3152 2914 c-43 -15 -67 -31 -103 -68 -17 -18 -19 -17 -64 29 l-45
48 -24 -24 c-13 -13 -26 -33 -30 -45 -3 -12 -17 -26 -30 -32 -16 -7 -26 -22
-30 -47 -8 -40 -26 -75 -38 -75 -4 0 -19 -10 -33 -21 -20 -18 -22 -25 -13 -43
6 -11 11 -33 10 -48 l-1 -28 60 7 c35 3 69 2 82 -5 12 -5 58 -17 102 -26 44
-10 84 -21 89 -26 6 -6 21 -10 35 -10 28 0 101 30 101 42 0 4 11 8 25 8 13 0
34 5 47 11 22 10 23 13 17 87 -3 42 -4 84 -1 94 2 10 -2 28 -10 40 -8 13 -18
47 -21 76 -3 29 -9 57 -12 62 -9 14 -63 11 -113 -6z"/>
<path d="M2533 2793 c9 -2 23 -2 30 0 6 3 -1 5 -18 5 -16 0 -22 -2 -12 -5z"/>
<path d="M1746 2771 c-9 -14 11 -61 28 -67 9 -3 18 -14 21 -25 4 -10 15 -19
25 -19 20 0 36 -17 26 -27 -4 -4 -12 -1 -18 5 -7 7 -23 12 -36 12 l-25 0 7
-81 c4 -52 3 -78 -3 -74 -12 7 -51 -24 -51 -40 0 -10 52 -59 93 -88 9 -7 9
-10 0 -14 -24 -9 -13 -32 34 -70 68 -54 69 -55 82 -95 6 -19 26 -46 43 -59 17
-13 37 -30 45 -37 8 -9 13 -10 13 -2 0 6 5 8 11 5 15 -10 28 -48 20 -60 -3 -5
-6 -29 -7 -52 -1 -24 -7 -50 -14 -58 -6 -8 -12 -31 -12 -52 0 -21 -5 -44 -11
-51 -6 -8 -13 -23 -14 -35 -2 -12 -7 -24 -12 -27 -11 -6 -6 -93 8 -140 16 -53
14 -61 -14 -56 -21 4 -25 1 -21 -12 2 -9 7 -32 11 -50 4 -21 16 -37 34 -46 26
-14 27 -17 23 -75 -3 -46 -1 -61 9 -61 10 0 10 -3 1 -12 -19 -19 -14 -53 13
-78 14 -13 25 -31 25 -40 0 -9 7 -25 16 -36 13 -16 15 -16 10 -1 -3 9 -1 17 5
17 6 0 9 -17 8 -40 -4 -44 9 -64 34 -54 13 4 17 20 18 58 1 28 3 43 6 33 2 -9
9 -17 14 -17 5 0 9 -14 9 -32 0 -23 10 -40 41 -70 35 -33 40 -43 34 -68 -4
-18 -1 -41 8 -59 13 -26 13 -30 -5 -45 -15 -13 -16 -20 -8 -36 6 -11 15 -20
20 -20 5 0 10 -10 12 -22 2 -12 9 -24 17 -26 11 -4 13 4 8 37 -4 30 -1 45 10
54 39 32 53 49 48 57 -7 12 32 23 47 13 23 -14 38 -12 48 7 7 12 17 16 31 13
11 -3 74 0 140 7 91 9 123 9 133 0 21 -17 78 -3 110 27 26 24 89 49 113 45 6
-2 24 9 39 23 16 15 39 25 58 25 17 0 42 9 56 20 14 11 31 20 38 20 6 0 12 6
12 13 0 8 4 7 10 -3 8 -13 10 -12 10 3 0 12 8 17 26 17 30 0 94 28 94 41 0 5
6 9 14 9 7 0 19 7 26 15 7 8 19 15 26 15 13 0 55 31 78 58 15 17 23 25 80 74
27 24 53 48 58 53 38 45 48 60 48 71 0 7 4 14 8 16 10 3 82 104 82 113 0 3 10
19 22 35 12 16 19 32 16 35 -3 3 8 20 23 36 16 17 29 37 29 45 0 8 4 14 8 14
5 0 14 16 22 35 8 19 17 35 22 35 4 0 8 6 8 13 0 6 11 34 25 62 14 27 27 65
29 85 2 19 1 27 -1 18 -2 -10 -9 -18 -14 -18 -5 0 -9 -5 -9 -10 0 -13 -81
-144 -92 -148 -4 -2 -8 -10 -8 -17 0 -7 -25 -35 -56 -61 -31 -27 -69 -61 -86
-76 -17 -16 -35 -28 -42 -28 -6 0 -16 -8 -23 -19 -6 -10 -33 -29 -60 -41 -26
-13 -79 -37 -118 -55 -109 -51 -278 -86 -339 -71 -21 5 -26 12 -26 36 0 23 5
31 23 34 98 21 138 26 210 26 90 1 117 12 117 51 0 14 6 34 14 45 9 12 11 26
6 34 -9 15 -2 40 12 40 5 0 16 6 24 13 8 6 36 30 63 52 27 22 50 45 50 50 1
11 17 24 69 55 38 23 41 46 12 106 l-21 42 -62 -5 c-77 -7 -135 -32 -186 -82
-46 -45 -110 -66 -161 -51 -21 6 -36 6 -40 0 -3 -5 -25 -9 -50 -8 -24 0 -46
-5 -48 -11 -2 -7 -29 -11 -68 -11 -37 0 -63 4 -60 9 6 9 -120 35 -156 33 -10
0 -18 6 -18 14 0 17 -2 17 -35 2 -22 -10 -28 -8 -49 11 -16 15 -31 21 -44 17
-11 -4 -23 -2 -27 4 -8 13 -62 13 -70 0 -11 -18 -32 -11 -43 15 -11 23 -16 25
-46 20 -30 -6 -38 -3 -62 24 -18 20 -34 29 -45 26 -11 -4 -27 5 -46 24 -15 16
-44 34 -63 39 -24 6 -35 14 -33 26 1 12 -4 15 -14 12 -9 -4 -26 4 -41 19 -13
14 -29 25 -33 25 -5 0 -9 9 -9 20 0 11 7 20 15 20 8 0 15 9 15 20 0 17 7 20
40 20 22 0 40 -3 40 -7 0 -11 58 -43 77 -43 9 0 30 -11 48 -24 17 -13 47 -31
67 -39 34 -14 71 -42 125 -94 22 -21 56 -43 67 -43 2 0 12 7 20 16 23 22 155
41 166 23 7 -10 18 -11 60 -1 67 16 173 15 188 0 9 -9 15 -9 24 0 7 7 31 12
55 12 24 0 51 5 61 10 31 18 156 62 207 72 28 5 52 12 54 14 8 7 -33 33 -52
34 -26 0 -16 22 19 40 16 8 31 18 32 23 2 4 15 7 28 7 13 0 24 4 24 9 0 5 13
14 29 19 34 12 71 46 71 65 0 6 -16 30 -35 51 l-34 39 -58 -16 c-32 -9 -59
-21 -61 -27 -2 -5 -9 -10 -16 -10 -6 0 -19 -9 -29 -20 -9 -11 -22 -20 -29 -20
-7 0 -26 -13 -41 -30 -24 -25 -37 -30 -75 -30 -26 0 -60 -7 -76 -15 -35 -18
-87 -19 -105 -2 -11 10 -14 10 -18 0 -5 -15 -70 -18 -75 -3 -4 14 -101 31
-113 19 -14 -14 -35 -11 -35 6 0 13 -4 14 -22 4 -13 -7 -62 -13 -111 -13 -82
-1 -87 0 -85 19 4 24 -34 33 -60 14 -14 -11 -15 -11 -4 1 24 28 14 40 -35 40
-31 0 -43 3 -34 9 20 13 6 28 -34 35 -19 4 -35 10 -35 14 0 8 -15 16 -92 52
-25 12 -56 33 -69 46 -12 13 -28 24 -34 24 -7 0 -25 11 -41 25 -16 14 -44 32
-61 40 -18 9 -33 19 -33 23 0 7 -48 32 -62 32 -4 0 -8 -6 -8 -14 0 -19 -76
-14 -117 7 -18 9 -38 17 -45 17 -8 0 -20 9 -28 20 -8 11 -18 20 -23 20 -5 0
-15 7 -23 15 -17 17 -40 20 -48 6z m314 -120 c0 -17 -18 -21 -24 -6 -3 9 0 15
9 15 8 0 15 -4 15 -9z m-163 -43 c-3 -8 -6 -5 -6 6 -1 11 2 17 5 13 3 -3 4
-12 1 -19z m0 -264 c-3 -3 -12 -4 -19 -1 -8 3 -5 6 6 6 11 1 17 -2 13 -5z m30
-20 c-3 -3 -12 -4 -19 -1 -8 3 -5 6 6 6 11 1 17 -2 13 -5z m66 -26 c32 -17 38
-23 23 -26 -21 -5 -87 28 -80 40 7 11 10 11 57 -14z m62 -38 c3 -5 -1 -10 -10
-10 -9 0 -13 5 -10 10 3 6 8 10 10 10 2 0 7 -4 10 -10z m74 -41 c13 -11 21
-22 19 -25 -3 -3 -13 2 -21 11 -9 8 -20 15 -26 15 -6 0 -11 5 -11 10 0 15 12
12 39 -11z m81 -66 c0 -11 -4 -11 -20 -3 -11 6 -20 15 -20 19 0 5 9 7 20 4 11
-3 20 -12 20 -20z m40 -29 c0 -2 -7 -4 -15 -4 -8 0 -15 4 -15 10 0 5 7 7 15 4
8 -4 15 -8 15 -10z m27 -30 c-3 -3 -12 -4 -19 -1 -8 3 -5 6 6 6 11 1 17 -2 13
-5z m43 -34 c9 -16 8 -20 -5 -20 -8 0 -15 6 -15 14 0 8 -6 17 -12 19 -8 3 -6
6 4 6 10 1 22 -8 28 -19z m-197 -44 c12 -30 -17 -35 -33 -6 -9 17 -8 20 9 20
10 0 21 -6 24 -14z m47 -56 c0 -5 -4 -10 -9 -10 -6 0 -13 5 -16 10 -3 6 1 10
9 10 9 0 16 -4 16 -10z m89 -119 c0 -10 -2 -12 -6 -3 -7 19 -43 15 -44 -5 0
-12 -2 -14 -6 -5 -3 8 0 25 8 38 12 23 14 23 31 7 10 -9 18 -23 17 -32z m1315
40 c6 -9 -59 -66 -99 -87 -19 -10 -23 -7 -34 18 -19 42 -8 56 46 63 26 4 53 8
58 10 18 6 24 5 29 -4z m-1188 -46 c6 -5 9 -16 6 -23 -4 -14 -32 -16 -32 -2 0
6 -8 10 -17 10 -10 0 -25 5 -33 10 -12 7 -10 11 10 18 26 10 47 6 66 -13z
m707 18 c-7 -2 -21 -2 -30 0 -10 3 -4 5 12 5 17 0 24 -2 18 -5z m287 -103 c23
0 48 -6 56 -14 19 -19 18 -56 -1 -56 -10 0 -15 10 -15 30 0 20 -5 30 -15 30
-8 0 -15 -4 -15 -10 0 -5 -7 -10 -15 -10 -8 0 -15 5 -15 10 0 6 -13 10 -30 10
-20 0 -30 5 -30 15 0 12 4 13 19 5 11 -5 38 -10 61 -10z m-410 -39 c3 -4 32
-9 64 -10 47 -2 63 -7 77 -24 15 -19 15 -23 3 -30 -8 -4 -14 -16 -14 -25 0
-11 -13 -23 -33 -30 -39 -14 -67 -16 -67 -3 0 4 -30 11 -67 15 -55 6 -68 4
-75 -9 -15 -26 -52 -20 -190 34 -38 14 -68 29 -68 34 0 11 48 8 69 -5 15 -9
22 -8 36 5 9 9 12 17 6 17 -6 0 -11 9 -11 19 0 15 8 21 33 23 53 5 232 -3 237
-11z m-282 -19 c13 -20 13 -22 -5 -22 -25 0 -43 19 -36 37 7 18 23 12 41 -15z
m-128 -142 c19 -11 43 -22 53 -26 9 -3 17 -10 17 -15 0 -5 16 -9 35 -9 19 0
35 -5 35 -11 0 -6 6 -9 13 -6 8 3 20 1 28 -4 9 -6 -4 -9 -38 -9 -29 0 -53 4
-53 9 0 5 -12 12 -26 15 -32 8 -135 76 -114 76 8 -1 31 -10 50 -20z"/>
<path d="M274 2421 c-28 -34 -36 -63 -28 -95 8 -33 24 -34 24 -1 0 13 7 43 16
64 20 51 15 65 -12 32z"/>
<path d="M287 2340 c3 -11 7 -20 9 -20 2 0 4 9 4 20 0 11 -4 20 -9 20 -5 0 -7
-9 -4 -20z"/>
<path d="M310 2321 c-5 -11 -10 -27 -10 -35 0 -9 -6 -16 -14 -16 -16 0 -29
-27 -20 -41 3 -6 14 -7 23 -4 16 5 17 1 7 -45 -7 -37 -7 -56 1 -69 6 -9 9 -29
6 -43 -4 -18 2 -33 19 -50 12 -12 22 -27 20 -31 -1 -5 1 -6 6 -3 14 8 47 -36
46 -61 -1 -12 8 -32 19 -44 16 -17 17 -23 6 -30 -8 -5 -21 -9 -29 -9 -13 0
-13 -1 0 -10 12 -8 11 -10 -7 -10 -29 0 -29 -9 5 -105 53 -149 40 -137 177
-157 65 -9 133 -22 149 -29 85 -31 147 -69 203 -124 34 -33 73 -69 87 -79 27
-19 42 -32 151 -125 33 -28 67 -51 76 -51 9 0 22 -7 29 -15 18 -21 64 -19 85
5 17 19 17 20 -11 30 -15 6 -50 27 -76 46 -26 18 -51 34 -56 34 -4 0 -23 15
-42 34 -78 75 -123 116 -127 116 -7 0 -33 28 -33 37 -1 4 -19 20 -40 35 -22
15 -40 34 -40 41 0 7 -22 33 -48 58 -90 83 -210 262 -185 277 12 8 5 72 -8 72
-5 0 -9 11 -9 25 0 14 -4 25 -10 25 -5 0 -10 5 -10 11 0 19 -52 141 -69 162
-62 76 -105 107 -150 107 -36 0 -40 3 -60 45 -23 48 -44 57 -61 26z"/>
<path d="M3751 2084 c0 -11 3 -14 6 -6 3 7 2 16 -1 19 -3 4 -6 -2 -5 -13z"/>
<path d="M1637 2015 c-44 -103 -68 -276 -59 -418 4 -62 8 -77 19 -73 8 3 12 2
8 -3 -3 -5 15 -9 40 -9 25 0 48 4 51 10 4 6 9 6 13 2 8 -11 52 -36 56 -32 1 2
5 17 8 34 5 27 3 31 -11 27 -15 -3 -17 2 -14 42 3 28 -1 52 -9 63 -7 9 -9 14
-5 10 10 -9 35 20 36 41 0 8 -10 3 -25 -13 -18 -20 -25 -39 -27 -83 -2 -34 -8
-58 -16 -61 -9 -3 -12 22 -10 108 2 99 0 114 -17 126 -15 11 -16 16 -5 29 15
18 -1 20 -18 3 -10 -10 -15 -10 -22 2 -9 15 -5 53 11 110 13 43 9 117 -4 85z
m-3 -452 c3 -11 0 -26 -5 -34 -6 -10 -9 -2 -9 25 0 40 8 45 14 9z m46 -28 c0
-9 -6 -12 -16 -8 -13 5 -13 7 -2 14 17 11 18 11 18 -6z"/>
<path d="M1291 1823 c-9 -18 -15 -69 -11 -88 2 -5 3 -19 4 -30 1 -14 9 -21 29
-23 30 -4 32 0 16 30 -8 15 -8 33 1 66 9 36 8 47 -2 53 -19 13 -26 11 -37 -8z"/>
<path d="M1900 1419 c0 -5 4 -7 10 -4 6 4 9 -17 9 -52 0 -79 2 -93 17 -93 21
0 25 17 8 34 -8 9 -11 16 -5 16 6 0 11 18 11 40 0 22 -4 40 -10 40 -5 0 -10 7
-10 15 0 8 -7 15 -15 15 -8 0 -15 -5 -15 -11z"/>
<path d="M1507 1243 c-14 -13 -6 -21 26 -28 22 -5 26 -9 15 -12 -39 -10 -8
-33 81 -62 63 -20 62 9 -1 71 -31 31 -46 38 -77 38 -21 0 -41 -3 -44 -7z"/>
<path d="M1765 780 c20 -22 76 -53 83 -46 2 3 -6 18 -19 35 -17 20 -33 30 -53
30 -29 1 -29 1 -11 -19z"/>
<path d="M2070 666 c0 -7 9 -16 21 -19 12 -3 18 -10 15 -15 -3 -6 0 -12 6 -15
11 -3 11 -9 0 -26 -12 -20 -10 -21 26 -21 27 0 45 -7 58 -21 10 -12 60 -52
109 -89 50 -38 119 -98 155 -134 51 -53 71 -66 95 -66 74 0 98 25 46 48 -35
15 -71 46 -71 59 0 6 -13 16 -30 23 -19 8 -30 20 -30 32 0 10 -8 21 -17 25
-10 3 -25 12 -33 19 -57 51 -74 64 -79 65 -55 6 -69 12 -91 39 -15 18 -34 30
-48 30 -29 0 -19 20 11 21 21 1 15 3 -78 25 -16 4 -34 13 -38 20 -10 18 -27
18 -27 0z"/>
<path d="M2286 585 c4 -8 8 -15 10 -15 2 0 4 7 4 15 0 8 -4 15 -10 15 -5 0 -7
-7 -4 -15z"/>
</g>
</svg>
